<svg version="1.1" viewBox="0.0 0.0 1280.9317585301837 852.2939632545932" fill="none" stroke="none" stroke-linecap="square" stroke-miterlimit="10" xmlns:xlink="http://www.w3.org/1999/xlink" xmlns="http://www.w3.org/2000/svg"><clipPath id="p.0"><path d="m0 0l1280.9318 0l0 852.29395l-1280.9318 0l0 -852.29395z" clip-rule="nonzero"/></clipPath><g clip-path="url(#p.0)"><path fill="#000000" fill-opacity="0.0" d="m0 0l1280.9318 0l0 852.29395l-1280.9318 0z" fill-rule="evenodd"/><path fill="#bf9000" d="m64.43044 206.16798l831.11816 0l0 516.441l-831.11816 0z" fill-rule="evenodd"/><path stroke="#000000" stroke-width="1.0" stroke-linejoin="round" stroke-linecap="butt" d="m64.43044 206.16798l831.11816 0l0 516.441l-831.11816 0z" fill-rule="evenodd"/><path fill="#6aa84f" d="m347.62503 218.93964l276.27805 0l0 420.37262l-276.27805 0z" fill-rule="evenodd"/><path stroke="#000000" stroke-width="1.0" stroke-linejoin="round" stroke-linecap="butt" d="m347.62503 218.93964l276.27805 0l0 420.37262l-276.27805 0z" fill-rule="evenodd"/><path fill="#000000" d="m445.20224 245.85963l0 -13.25l2.6875 0l0 11.0l6.703125 0l0 2.25l-9.390625 0zm11.317841 0l0 -13.359375l4.328125 0q2.453125 0 3.203125 0.203125q1.140625 0.296875 1.921875 1.3125q0.78125 1.0 0.78125 2.59375q0 1.234375 -0.453125 2.078125q-0.453125 0.828125 -1.140625 1.3125q-0.6875 0.46875 -1.390625 0.625q-0.96875 0.203125 -2.796875 0.203125l-1.765625 0l0 5.03125l-2.6875 0zm2.6875 -11.09375l0 3.78125l1.484375 0q1.59375 0 2.125 -0.203125q0.546875 -0.203125 0.84375 -0.65625q0.3125 -0.453125 0.3125 -1.03125q0 -0.734375 -0.4375 -1.203125q-0.421875 -0.484375 -1.078125 -0.59375q-0.484375 -0.09375 -1.9375 -0.09375l-1.3125 0zm18.302948 6.1875l2.609375 0.828125q-0.59375 2.1875 -2.0 3.25q-1.390625 1.0625 -3.546875 1.0625q-2.65625 0 -4.375 -1.8125q-1.703125 -1.828125 -1.703125 -4.984375q0 -3.328125 1.71875 -5.171875q1.71875 -1.84375 4.515625 -1.84375q2.453125 0 3.984375 1.4375q0.921875 0.859375 1.375 2.46875l-2.671875 0.640625q-0.234375 -1.046875 -0.984375 -1.640625q-0.75 -0.609375 -1.828125 -0.609375q-1.484375 0 -2.421875 1.078125q-0.921875 1.0625 -0.921875 3.4375q0 2.53125 0.90625 3.609375q0.921875 1.078125 2.375 1.078125q1.078125 0 1.84375 -0.671875q0.78125 -0.6875 1.125 -2.15625zm14.5625 4.90625l0 -2.6875l-5.46875 0l0 -2.234375l5.796875 -8.484375l2.15625 0l0 8.46875l1.65625 0l0 2.25l-1.65625 0l0 2.6875l-2.484375 0zm0 -4.9375l0 -4.5625l-3.078125 4.5625l3.078125 0zm9.688202 -8.46875q1.9375 0 3.03125 1.375q1.296875 1.640625 1.296875 5.4375q0 3.796875 -1.3125 5.453125q-1.078125 1.375 -3.015625 1.375q-1.953125 0 -3.15625 -1.5q-1.1875 -1.5 -1.1875 -5.34375q0 -3.78125 1.3125 -5.4375q1.078125 -1.359375 3.03125 -1.359375zm0 2.125q-0.46875 0 -0.84375 0.296875q-0.359375 0.296875 -0.5625 1.0625q-0.25 0.984375 -0.25 3.328125q0 2.359375 0.234375 3.234375q0.234375 0.875 0.59375 1.171875q0.359375 0.296875 0.828125 0.296875q0.453125 0 0.8125 -0.296875q0.375 -0.296875 0.578125 -1.0625q0.265625 -0.984375 0.265625 -3.34375q0 -2.34375 -0.25 -3.21875q-0.234375 -0.875 -0.59375 -1.171875q-0.359375 -0.296875 -0.8125 -0.296875zm8.235107 4.078125q-0.984375 -0.421875 -1.4375 -1.15625q-0.453125 -0.734375 -0.453125 -1.609375q0 -1.484375 1.03125 -2.453125q1.046875 -0.984375 2.96875 -0.984375q1.90625 0 2.953125 0.984375q1.0625 0.96875 1.0625 2.453125q0 0.9375 -0.484375 1.65625q-0.484375 0.71875 -1.359375 1.109375q1.109375 0.4375 1.6875 1.296875q0.578125 0.859375 0.578125 1.984375q0 1.84375 -1.1875 3.0q-1.171875 1.15625 -3.125 1.15625q-1.828125 0 -3.03125 -0.953125q-1.4375 -1.125 -1.4375 -3.09375q0 -1.09375 0.53125 -2.0q0.546875 -0.90625 1.703125 -1.390625zm0.53125 -2.578125q0 0.765625 0.421875 1.203125q0.4375 0.421875 1.15625 0.421875q0.734375 0 1.171875 -0.4375q0.4375 -0.4375 0.4375 -1.203125q0 -0.71875 -0.4375 -1.140625q-0.421875 -0.4375 -1.140625 -0.4375q-0.734375 0 -1.171875 0.4375q-0.4375 0.4375 -0.4375 1.15625zm-0.234375 5.71875q0 1.0625 0.53125 1.65625q0.546875 0.578125 1.359375 0.578125q0.796875 0 1.3125 -0.5625q0.515625 -0.5625 0.515625 -1.640625q0 -0.9375 -0.53125 -1.5q-0.515625 -0.578125 -1.328125 -0.578125q-0.9375 0 -1.40625 0.65625q-0.453125 0.640625 -0.453125 1.390625zm10.078857 -3.140625q-0.984375 -0.421875 -1.4375 -1.15625q-0.453125 -0.734375 -0.453125 -1.609375q0 -1.484375 1.03125 -2.453125q1.046875 -0.984375 2.96875 -0.984375q1.90625 0 2.953125 0.984375q1.0625 0.96875 1.0625 2.453125q0 0.9375 -0.484375 1.65625q-0.484375 0.71875 -1.359375 1.109375q1.109375 0.4375 1.6875 1.296875q0.578125 0.859375 0.578125 1.984375q0 1.84375 -1.1875 3.0q-1.171875 1.15625 -3.125 1.15625q-1.828125 0 -3.03125 -0.953125q-1.4375 -1.125 -1.4375 -3.09375q0 -1.09375 0.53125 -2.0q0.546875 -0.90625 1.703125 -1.390625zm0.53125 -2.578125q0 0.765625 0.421875 1.203125q0.4375 0.421875 1.15625 0.421875q0.734375 0 1.171875 -0.4375q0.4375 -0.4375 0.4375 -1.203125q0 -0.71875 -0.4375 -1.140625q-0.421875 -0.4375 -1.140625 -0.4375q-0.734375 0 -1.171875 0.4375q-0.4375 0.4375 -0.4375 1.15625zm-0.234375 5.71875q0 1.0625 0.53125 1.65625q0.546875 0.578125 1.359375 0.578125q0.796875 0 1.3125 -0.5625q0.515625 -0.5625 0.515625 -1.640625q0 -0.9375 -0.53125 -1.5q-0.515625 -0.578125 -1.328125 -0.578125q-0.9375 0 -1.40625 0.65625q-0.453125 0.640625 -0.453125 1.390625z" fill-rule="nonzero"/><path fill="#ff0000" d="m503.47433 284.00626l110.92667 0l0 86.605835l-110.92667 0z" fill-rule="evenodd"/><path stroke="#000000" stroke-width="1.0" stroke-linejoin="round" stroke-linecap="butt" d="m503.47433 284.00626l110.92667 0l0 86.605835l-110.92667 0z" fill-rule="evenodd"/><path fill="#000000" d="m551.1006 310.92627l-2.9375 0l-1.171875 -3.03125l-5.328125 0l-1.109375 3.03125l-2.859375 0l5.203125 -13.359375l2.84375 0l5.359375 13.359375zm-4.96875 -5.28125l-1.84375 -4.953125l-1.796875 4.953125l3.640625 0zm6.3948364 5.28125l0 -13.359375l5.6875 0q2.140625 0 3.109375 0.359375q0.96875 0.359375 1.546875 1.28125q0.578125 0.921875 0.578125 2.109375q0 1.5 -0.890625 2.484375q-0.875 0.96875 -2.625 1.234375q0.875 0.5 1.4375 1.125q0.578125 0.609375 1.53125 2.15625l1.640625 2.609375l-3.234375 0l-1.9375 -2.90625q-1.046875 -1.5625 -1.4375 -1.96875q-0.375 -0.40625 -0.8125 -0.546875q-0.421875 -0.15625 -1.34375 -0.15625l-0.546875 0l0 5.578125l-2.703125 0zm2.703125 -7.703125l2.0 0q1.9375 0 2.421875 -0.15625q0.484375 -0.171875 0.75 -0.578125q0.28125 -0.40625 0.28125 -1.0q0 -0.671875 -0.359375 -1.078125q-0.359375 -0.421875 -1.015625 -0.53125q-0.328125 -0.046875 -1.96875 -0.046875l-2.109375 0l0 3.390625zm10.738525 7.703125l0 -13.359375l4.03125 0l2.421875 9.109375l2.390625 -9.109375l4.046875 0l0 13.359375l-2.5 0l0 -10.515625l-2.65625 10.515625l-2.59375 0l-2.640625 -10.515625l0 10.515625l-2.5 0z" fill-rule="nonzero"/><path fill="#000000" d="m523.23267 328.02002l2.609375 0.828125q-0.59375 2.1875 -2.0 3.25q-1.390625 1.0625 -3.546875 1.0625q-2.65625 0 -4.375 -1.8125q-1.703125 -1.828125 -1.703125 -4.984375q0 -3.328125 1.71875 -5.171875q1.71875 -1.84375 4.515625 -1.84375q2.453125 0 3.984375 1.4375q0.921875 0.859375 1.375 2.46875l-2.671875 0.640625q-0.234375 -1.046875 -0.984375 -1.640625q-0.75 -0.609375 -1.828125 -0.609375q-1.484375 0 -2.421875 1.078125q-0.921875 1.0625 -0.921875 3.4375q0 2.53125 0.90625 3.609375q0.921875 1.078125 2.375 1.078125q1.078125 0 1.84375 -0.671875q0.78125 -0.6875 1.125 -2.15625zm4.3167114 -0.0625q0 -1.28125 0.625 -2.46875q0.625 -1.203125 1.78125 -1.828125q1.15625 -0.625 2.578125 -0.625q2.1875 0 3.59375 1.421875q1.40625 1.421875 1.40625 3.609375q0 2.1875 -1.421875 3.640625q-1.421875 1.4375 -3.5625 1.4375q-1.328125 0 -2.546875 -0.59375q-1.203125 -0.609375 -1.828125 -1.765625q-0.625 -1.171875 -0.625 -2.828125zm2.625 0.125q0 1.453125 0.671875 2.21875q0.6875 0.75 1.6875 0.75q1.0 0 1.671875 -0.75q0.6875 -0.765625 0.6875 -2.234375q0 -1.421875 -0.6875 -2.1875q-0.671875 -0.765625 -1.671875 -0.765625q-1.0 0 -1.6875 0.765625q-0.671875 0.765625 -0.671875 2.203125zm11.817871 4.84375l-2.5625 0l0 -9.671875l2.375 0l0 1.375q0.609375 -0.984375 1.09375 -1.28125q0.484375 -0.3125 1.109375 -0.3125q0.875 0 1.6875 0.484375l-0.796875 2.234375q-0.640625 -0.421875 -1.203125 -0.421875q-0.53125 0 -0.90625 0.296875q-0.375 0.296875 -0.59375 1.078125q-0.203125 0.765625 -0.203125 3.234375l0 2.984375zm9.244629 -9.671875l0 2.03125l-1.75 0l0 3.90625q0 1.1875 0.046875 1.390625q0.046875 0.1875 0.21875 0.3125q0.1875 0.125 0.4375 0.125q0.359375 0 1.03125 -0.25l0.21875 2.0q-0.890625 0.375 -2.015625 0.375q-0.703125 0 -1.265625 -0.234375q-0.546875 -0.234375 -0.8125 -0.59375q-0.25 -0.375 -0.34375 -1.0q-0.09375 -0.453125 -0.09375 -1.8125l0 -4.21875l-1.171875 0l0 -2.03125l1.171875 0l0 -1.921875l2.578125 -1.5l0 3.421875l1.75 0zm7.3688965 6.59375l2.546875 0.421875q-0.484375 1.40625 -1.546875 2.140625q-1.0625 0.734375 -2.65625 0.734375q-2.515625 0 -3.734375 -1.65625q-0.953125 -1.3125 -0.953125 -3.328125q0 -2.40625 1.25 -3.765625q1.265625 -1.359375 3.1875 -1.359375q2.15625 0 3.40625 1.421875q1.25 1.421875 1.1875 4.375l-6.40625 0q0.03125 1.140625 0.609375 1.78125q0.59375 0.625 1.484375 0.625q0.59375 0 1.0 -0.328125q0.421875 -0.328125 0.625 -1.0625zm0.15625 -2.59375q-0.03125 -1.109375 -0.578125 -1.6875q-0.546875 -0.578125 -1.328125 -0.578125q-0.84375 0 -1.390625 0.609375q-0.546875 0.609375 -0.53125 1.65625l3.828125 0zm3.3913574 5.671875l3.484375 -4.984375l-3.34375 -4.6875l3.125 0l1.71875 2.65625l1.796875 -2.65625l3.015625 0l-3.28125 4.578125l3.578125 5.09375l-3.140625 0l-1.96875 -3.0l-1.984375 3.0l-3.0 0zm11.313232 -3.5625l0 -2.5625l5.03125 0l0 2.5625l-5.03125 0zm6.4938965 3.5625l0 -13.359375l4.03125 0l2.421875 9.109375l2.390625 -9.109375l4.046875 0l0 13.359375l-2.5 0l0 -10.515625l-2.65625 10.515625l-2.59375 0l-2.640625 -10.515625l0 10.515625l-2.5 0zm20.025208 0l0 -2.6875l-5.46875 0l0 -2.234375l5.796875 -8.484375l2.15625 0l0 8.46875l1.65625 0l0 2.25l-1.65625 0l0 2.6875l-2.484375 0zm0 -4.9375l0 -4.5625l-3.078125 4.5625l3.078125 0z" fill-rule="nonzero"/><path fill="#000000" d="m533.93976 358.84814l-1.75 0q-1.390625 -2.09375 -2.125 -4.359375q-0.734375 -2.28125 -0.734375 -4.40625q0 -2.625 0.90625 -4.96875q0.78125 -2.046875 1.984375 -3.765625l1.75 0q-1.25 2.75 -1.71875 4.6875q-0.46875 1.9375 -0.46875 4.109375q0 1.5 0.28125 3.0625q0.28125 1.5625 0.765625 2.96875q0.3125 0.9375 1.109375 2.671875zm1.3377075 -7.46875l2.46875 -0.296875q0.125 0.953125 0.640625 1.453125q0.53125 0.5 1.265625 0.5q0.78125 0 1.328125 -0.59375q0.546875 -0.609375 0.546875 -1.640625q0 -0.953125 -0.53125 -1.515625q-0.515625 -0.578125 -1.25 -0.578125q-0.5 0 -1.1875 0.203125l0.28125 -2.09375q1.046875 0.03125 1.59375 -0.4375q0.546875 -0.484375 0.546875 -1.28125q0 -0.671875 -0.40625 -1.078125q-0.390625 -0.40625 -1.0625 -0.40625q-0.65625 0 -1.125 0.46875q-0.453125 0.453125 -0.5625 1.328125l-2.359375 -0.40625q0.25 -1.203125 0.734375 -1.921875q0.5 -0.734375 1.390625 -1.140625q0.890625 -0.421875 2.0 -0.421875q1.875 0 3.015625 1.203125q0.9375 0.984375 0.9375 2.21875q0 1.765625 -1.921875 2.8125q1.15625 0.234375 1.84375 1.09375q0.6875 0.859375 0.6875 2.0625q0 1.765625 -1.296875 3.015625q-1.28125 1.234375 -3.1875 1.234375q-1.8125 0 -3.015625 -1.046875q-1.1875 -1.046875 -1.375 -2.734375zm19.110046 1.171875l0 2.375l-8.96875 0q0.140625 -1.34375 0.859375 -2.546875q0.734375 -1.21875 2.890625 -3.203125q1.734375 -1.625 2.125 -2.1875q0.53125 -0.796875 0.53125 -1.578125q0 -0.84375 -0.46875 -1.296875q-0.453125 -0.46875 -1.265625 -0.46875q-0.796875 0 -1.28125 0.484375q-0.46875 0.46875 -0.546875 1.59375l-2.546875 -0.25q0.234375 -2.109375 1.421875 -3.03125q1.203125 -0.921875 3.015625 -0.921875q1.96875 0 3.09375 1.0625q1.140625 1.0625 1.140625 2.65625q0 0.890625 -0.328125 1.71875q-0.3125 0.8125 -1.015625 1.703125q-0.46875 0.59375 -1.6875 1.703125q-1.203125 1.109375 -1.53125 1.484375q-0.3125 0.359375 -0.515625 0.703125l5.078125 0zm7.355896 2.375l0 -13.359375l2.5625 0l0 4.8125q1.171875 -1.34375 2.796875 -1.34375q1.765625 0 2.921875 1.28125q1.15625 1.28125 1.15625 3.671875q0 2.484375 -1.1875 3.828125q-1.171875 1.328125 -2.859375 1.328125q-0.828125 0 -1.640625 -0.40625q-0.796875 -0.421875 -1.375 -1.234375l0 1.421875l-2.375 0zm2.53125 -5.046875q0 1.5 0.484375 2.21875q0.65625 1.03125 1.765625 1.03125q0.84375 0 1.4375 -0.71875q0.59375 -0.734375 0.59375 -2.296875q0 -1.65625 -0.609375 -2.390625q-0.59375 -0.734375 -1.53125 -0.734375q-0.921875 0 -1.53125 0.71875q-0.609375 0.71875 -0.609375 2.171875zm8.974121 -5.9375l0 -2.375l2.5625 0l0 2.375l-2.5625 0zm0 10.984375l0 -9.671875l2.5625 0l0 9.671875l-2.5625 0zm9.620789 -9.671875l0 2.03125l-1.75 0l0 3.90625q0 1.1875 0.046875 1.390625q0.046875 0.1875 0.21875 0.3125q0.1875 0.125 0.4375 0.125q0.359375 0 1.03125 -0.25l0.21875 2.0q-0.890625 0.375 -2.015625 0.375q-0.703125 0 -1.265625 -0.234375q-0.546875 -0.234375 -0.8125 -0.59375q-0.25 -0.375 -0.34375 -1.0q-0.09375 -0.453125 -0.09375 -1.8125l0 -4.21875l-1.171875 0l0 -2.03125l1.171875 0l0 -1.921875l2.578125 -1.5l0 3.421875l1.75 0zm1.0564575 13.59375q0.765625 -1.609375 1.0625 -2.484375q0.3125 -0.859375 0.578125 -1.984375q0.265625 -1.140625 0.390625 -2.15625q0.125 -1.015625 0.125 -2.078125q0 -2.171875 -0.46875 -4.109375q-0.453125 -1.9375 -1.703125 -4.6875l1.734375 0q1.375 1.953125 2.140625 4.15625q0.765625 2.1875 0.765625 4.453125q0 1.90625 -0.609375 4.078125q-0.671875 2.4375 -2.25 4.8125l-1.765625 0z" fill-rule="nonzero"/><path fill="#ffff00" d="m358.19147 538.2398l0 0c0 -6.8758545 5.573944 -12.449768 12.449768 -12.449768l70.01999 0c3.30188 0 6.4685364 1.3116455 8.803314 3.6464233c2.3347778 2.3347778 3.6464539 5.501465 3.6464539 8.803345l0 49.797546c0 6.8758545 -5.573944 12.449768 -12.449768 12.449768l-70.01999 0l0 0c-6.875824 0 -12.449768 -5.5739136 -12.449768 -12.449768z" fill-rule="evenodd"/><path stroke="#000000" stroke-width="1.0" stroke-linejoin="round" stroke-linecap="butt" d="m358.19147 538.2398l0 0c0 -6.8758545 5.573944 -12.449768 12.449768 -12.449768l70.01999 0c3.30188 0 6.4685364 1.3116455 8.803314 3.6464233c2.3347778 2.3347778 3.6464539 5.501465 3.6464539 8.803345l0 49.797546c0 6.8758545 -5.573944 12.449768 -12.449768 12.449768l-70.01999 0l0 0c-6.875824 0 -12.449768 -5.5739136 -12.449768 -12.449768z" fill-rule="evenodd"/><path fill="#000000" d="m376.43457 570.0586l0 -13.359375l4.328125 0q2.453125 0 3.203125 0.203125q1.140625 0.296875 1.921875 1.3125q0.78125 1.0 0.78125 2.59375q0 1.234375 -0.453125 2.078125q-0.453125 0.828125 -1.140625 1.3125q-0.6875 0.46875 -1.390625 0.625q-0.96875 0.203125 -2.796875 0.203125l-1.765625 0l0 5.03125l-2.6875 0zm2.6875 -11.09375l0 3.78125l1.484375 0q1.59375 0 2.125 -0.203125q0.546875 -0.203125 0.84375 -0.65625q0.3125 -0.453125 0.3125 -1.03125q0 -0.734375 -0.4375 -1.203125q-0.421875 -0.484375 -1.078125 -0.59375q-0.484375 -0.09375 -1.9375 -0.09375l-1.3125 0zm11.646698 11.09375l-3.1875 -13.359375l2.765625 0l2.015625 9.171875l2.4375 -9.171875l3.203125 0l2.34375 9.328125l2.046875 -9.328125l2.71875 0l-3.25 13.359375l-2.859375 0l-2.65625 -9.984375l-2.65625 9.984375l-2.921875 0zm15.686798 0l0 -13.359375l4.03125 0l2.421875 9.109375l2.390625 -9.109375l4.046875 0l0 13.359375l-2.5 0l0 -10.515625l-2.65625 10.515625l-2.59375 0l-2.640625 -10.515625l0 10.515625l-2.5 0zm26.739716 0l-2.5625 0l0 -9.640625q-1.40625 1.3125 -3.3125 1.9375l0 -2.328125q1.015625 -0.328125 2.1875 -1.234375q1.171875 -0.921875 1.609375 -2.140625l2.078125 0l0 13.40625z" fill-rule="nonzero"/><path fill="#ffff00" d="m358.2073 302.30017l0 0c0 -6.875824 5.573944 -12.449768 12.449768 -12.449768l70.01999 0c3.30188 0 6.4685364 1.3116455 8.803314 3.6464539c2.3347778 2.3347778 3.6464539 5.501404 3.6464539 8.803314l0 49.797546c0 6.875824 -5.573944 12.449768 -12.449768 12.449768l-70.01999 0l0 0c-6.875824 0 -12.449768 -5.573944 -12.449768 -12.449768z" fill-rule="evenodd"/><path stroke="#000000" stroke-width="1.0" stroke-linejoin="round" stroke-linecap="butt" d="m358.2073 302.30017l0 0c0 -6.875824 5.573944 -12.449768 12.449768 -12.449768l70.01999 0c3.30188 0 6.4685364 1.3116455 8.803314 3.6464539c2.3347778 2.3347778 3.6464539 5.501404 3.6464539 8.803314l0 49.797546c0 6.875824 -5.573944 12.449768 -12.449768 12.449768l-70.01999 0l0 0c-6.875824 0 -12.449768 -5.573944 -12.449768 -12.449768z" fill-rule="evenodd"/><path fill="#000000" d="m376.4504 334.11896l0 -13.359375l4.328125 0q2.453125 0 3.203125 0.203125q1.140625 0.296875 1.921875 1.3125q0.78125 1.0 0.78125 2.59375q0 1.234375 -0.453125 2.078125q-0.453125 0.828125 -1.140625 1.3125q-0.6875 0.46875 -1.390625 0.625q-0.96875 0.203125 -2.796875 0.203125l-1.765625 0l0 5.03125l-2.6875 0zm2.6875 -11.09375l0 3.78125l1.484375 0q1.59375 0 2.125 -0.203125q0.546875 -0.203125 0.84375 -0.65625q0.3125 -0.453125 0.3125 -1.03125q0 -0.734375 -0.4375 -1.203125q-0.421875 -0.484375 -1.078125 -0.59375q-0.484375 -0.09375 -1.9375 -0.09375l-1.3125 0zm11.646698 11.09375l-3.1875 -13.359375l2.765625 0l2.015625 9.171875l2.4375 -9.171875l3.203125 0l2.34375 9.328125l2.046875 -9.328125l2.71875 0l-3.25 13.359375l-2.859375 0l-2.65625 -9.984375l-2.65625 9.984375l-2.921875 0zm15.686798 0l0 -13.359375l4.03125 0l2.421875 9.109375l2.390625 -9.109375l4.046875 0l0 13.359375l-2.5 0l0 -10.515625l-2.65625 10.515625l-2.59375 0l-2.640625 -10.515625l0 10.515625l-2.5 0zm24.520966 -13.40625q1.9375 0 3.03125 1.375q1.296875 1.640625 1.296875 5.4375q0 3.796875 -1.3125 5.453125q-1.078125 1.375 -3.015625 1.375q-1.953125 0 -3.15625 -1.5q-1.1875 -1.5 -1.1875 -5.34375q0 -3.78125 1.3125 -5.4375q1.078125 -1.359375 3.03125 -1.359375zm0 2.125q-0.46875 0 -0.84375 0.296875q-0.359375 0.296875 -0.5625 1.0625q-0.25 0.984375 -0.25 3.328125q0 2.359375 0.234375 3.234375q0.234375 0.875 0.59375 1.171875q0.359375 0.296875 0.828125 0.296875q0.453125 0 0.8125 -0.296875q0.375 -0.296875 0.578125 -1.0625q0.265625 -0.984375 0.265625 -3.34375q0 -2.34375 -0.25 -3.21875q-0.234375 -0.875 -0.59375 -1.171875q-0.359375 -0.296875 -0.8125 -0.296875z" fill-rule="nonzero"/><path fill="#999999" d="m753.46454 510.8609l-24.062988 -19.093994l0 -24.898651l24.062988 -19.093964z" fill-rule="evenodd"/><path stroke="#000000" stroke-width="1.0" stroke-linejoin="round" stroke-linecap="butt" d="m753.46454 510.8609l-24.062988 -19.093994l0 -24.898651l24.062988 -19.093964z" fill-rule="evenodd"/><path fill="#4a86e8" d="m635.66406 419.22308l80.8819 60.094513l-80.8819 60.09445z" fill-rule="evenodd"/><path stroke="#000000" stroke-width="1.0" stroke-linejoin="round" stroke-linecap="butt" d="m635.66406 419.22308l80.8819 60.094513l-80.8819 60.09445z" fill-rule="evenodd"/><path fill="#000000" d="m648.96454 471.6766l0 -2.9375l3.03125 -1.171875l0 -5.328125l-3.03125 -1.109375l0 -2.859375l13.359375 5.203125l0 2.84375l-13.359375 5.359375zm5.28125 -4.96875l4.953125 -1.84375l-4.953125 -1.796875l0 3.640625zm8.078125 6.379181l0 4.9375q0 1.65625 -0.265625 2.53125q-0.34375 1.1875 -1.234375 2.015625q-0.875 0.84375 -2.15625 1.28125q-1.28125 0.4375 -3.15625 0.4375q-1.640625 0 -2.84375 -0.40625q-1.453125 -0.5 -2.359375 -1.4375q-0.671875 -0.703125 -1.0625 -1.890625q-0.28125 -0.890625 -0.28125 -2.390625l0 -5.078125l13.359375 0zm-2.265625 2.703125l-8.84375 0l0 2.015625q0 1.125 0.125 1.625q0.171875 0.65625 0.5625 1.078125q0.390625 0.4375 1.28125 0.703125q0.90625 0.28125 2.453125 0.28125q1.546875 0 2.375 -0.28125q0.828125 -0.265625 1.28125 -0.765625q0.46875 -0.484375 0.640625 -1.234375q0.125 -0.5625 0.125 -2.21875l0 -1.203125zm-6.1875 19.332336l-0.828125 2.609375q-2.1875 -0.59375 -3.25 -2.0q-1.0625 -1.390625 -1.0625 -3.546875q0 -2.65625 1.8125 -4.375q1.828125 -1.703125 4.984375 -1.703125q3.328125 0 5.171875 1.71875q1.84375 1.71875 1.84375 4.515625q0 2.453125 -1.4375 3.984375q-0.859375 0.921875 -2.46875 1.375l-0.640625 -2.671875q1.046875 -0.234375 1.640625 -0.984375q0.609375 -0.75 0.609375 -1.828125q0 -1.484375 -1.078125 -2.421875q-1.0625 -0.921875 -3.4375 -0.921875q-2.53125 0 -3.609375 0.90625q-1.078125 0.921875 -1.078125 2.375q0 1.078125 0.671875 1.84375q0.6875 0.78125 2.15625 1.125z" fill-rule="nonzero"/><path fill="#000000" fill-opacity="0.0" d="m716.54596 479.3176l12.850342 0" fill-rule="evenodd"/><path stroke="#000000" stroke-width="3.0" stroke-linejoin="round" stroke-linecap="butt" d="m716.54596 479.3176l12.850342 0" fill-rule="evenodd"/><path fill="#ff00ff" d="m841.45764 294.6195l-38.281616 -38.281616l0 -27.387665l19.34552 -19.34555l0 0l65.66931 65.66931l0 0l-19.345581 19.34552z" fill-rule="evenodd"/><path stroke="#000000" stroke-width="1.0" stroke-linejoin="round" stroke-linecap="butt" d="m841.45764 294.6195l-38.281616 -38.281616l0 -27.387665l19.34552 -19.34555l0 0l65.66931 65.66931l0 0l-19.345581 19.34552z" fill-rule="evenodd"/><path fill="#000000" d="m863.8054 267.29468l-9.446472 9.446503l-2.850525 -2.850525l4.72876 -8.153809l-8.131714 4.7508545l-2.8615723 -2.8615723l9.446533 -9.446503l1.7677612 1.7677612l-7.435669 7.435669l9.313904 -5.5574036l1.8340454 1.8340454l-5.5684814 9.302887l7.435669 -7.435669l1.7677612 1.7677612zm-10.955811 -10.955872l-9.446533 9.446503l-1.9003296 -1.9003296l9.446472 -9.446503l1.9003906 1.9003296zm-13.233215 -6.294693l-1.2595215 -2.4306793q1.9666138 -1.1269531 3.7122803 -0.8838806q1.7346191 0.23202515 3.2593384 1.7567139q1.8782349 1.8782501 1.8119507 4.375229q-0.088378906 2.4969635 -2.3201904 4.728775q-2.3533325 2.3533325 -4.8723755 2.441742q-2.519104 0.088378906 -4.496765 -1.8893127q-1.7346191 -1.7346191 -1.8009033 -3.833847q-0.044189453 -1.2595367 0.77337646 -2.7179413l2.3422852 1.4363098q-0.5745239 0.90597534 -0.4640503 1.8561554q0.09942627 0.9612274 0.8618164 1.723587q1.0496216 1.0495911 2.4748535 0.9501648q1.4031982 -0.09942627 3.0825806 -1.7788239q1.789856 -1.789856 1.911377 -3.1930237q0.11047363 -1.4142151 -0.9170532 -2.4417267q-0.7623291 -0.7623596 -1.7788086 -0.8286438q-1.0385742 -0.06628418 -2.3201904 0.7292023zm-15.821533 -3.8006897q-1.3699951 -1.3700256 -1.1711426 -3.1156921q0.24310303 -2.0771332 2.9278564 -4.7619324q2.6848145 -2.684784 4.7840576 -2.9278564q1.7346191 -0.20993042 3.1046143 1.1600952q1.3811035 1.381073 1.1711426 3.2924652q-0.22094727 1.9003448 -2.9389038 4.618286q-2.673767 2.6737518 -4.772949 2.9168243q-1.7235718 0.1988678 -3.1046753 -1.18219zm1.5026245 -1.5026093q0.33148193 0.33145142 0.80651855 0.3867035q0.4640503 0.044189453 1.1490479 -0.3535614q0.87286377 -0.51927185 2.5301514 -2.1765594q1.668335 -1.668335 2.121338 -2.452774q0.4529419 -0.78445435 0.40875244 -1.2484894q-0.044189453 -0.46403503 -0.37561035 -0.79548645q-0.32043457 -0.3204193 -0.78448486 -0.36460876q-0.47509766 -0.055236816 -1.1600952 0.34249878q-0.8838501 0.50823975 -2.552185 2.1765747q-1.6572876 1.6572723 -2.0992432 2.452774q-0.45300293 0.7844391 -0.40881348 1.2484894q0.044189453 0.46403503 0.36462402 0.7844391z" fill-rule="nonzero"/><path fill="#ff00ff" d="m156.87674 257.67227l-38.28164 38.281647l-27.387657 0l-19.345543 -19.34555l0 0l65.66929 -65.6693l0 0l19.34555 19.34555z" fill-rule="evenodd"/><path stroke="#000000" stroke-width="1.0" stroke-linejoin="round" stroke-linecap="butt" d="m156.87674 257.67227l-38.28164 38.281647l-27.387657 0l-19.345543 -19.34555l0 0l65.66929 -65.6693l0 0l19.34555 19.34555z" fill-rule="evenodd"/><path fill="#000000" d="m129.5519 235.32448l9.446503 9.446503l-2.850525 2.850525l-8.153816 -4.728775l4.7508774 8.131729l-2.8615875 2.8615723l-9.446495 -9.446518l1.7677612 -1.7677612l7.4356766 7.435669l-5.557419 -9.313919l1.834053 -1.8340607l9.302879 5.568466l-7.435669 -7.435669l1.7677612 -1.7677612zm-10.955856 10.955856l9.446503 9.446503l-1.9003525 1.9003601l-9.446503 -9.446518l1.9003525 -1.9003448zm-6.2947083 13.233185l-2.4306793 1.259552q-1.1269531 -1.9666443 -0.8838806 -3.7123108q0.23201752 -1.7346344 1.7567139 -3.2593384q1.8782578 -1.8782501 4.375229 -1.8119507q2.4969711 0.088378906 4.728775 2.3201904q2.3533401 2.3533325 2.4417267 4.872406q0.088386536 2.5190735 -1.8892975 4.496765q-1.7346268 1.7346191 -3.833847 1.8009033q-1.2595367 0.044189453 -2.7179413 -0.773407l1.4363098 -2.3422852q0.905983 0.5745239 1.8561554 0.4640503q0.9612274 -0.09945679 1.7235718 -0.8617859q1.049614 -1.0496216 0.9501724 -2.474884q-0.0994339 -1.4031677 -1.7788086 -3.08255q-1.7898636 -1.789856 -3.1930313 -1.9113922q-1.4142151 -0.11048889 -2.4417267 0.91703796q-0.762352 0.7623291 -0.8286438 1.7788086q-0.06629181 1.0385742 0.7292023 2.3201904zm-7.6455917 5.7231445l-1.5357437 1.9555969q-0.762352 -0.5855713 -1.4805069 -0.5745239q-0.7292023 0.022094727 -1.2484818 0.54138184q-0.5524292 0.5524292 -0.5192871 1.3589783q0.044197083 0.81759644 0.77339935 1.5467834q0.67396545 0.6739502 1.4473572 0.6960449q0.77339935 0.04421997 1.2926788 -0.47506714q0.35355377 -0.35354614 0.6960602 -0.9833374l1.2816315 1.6793823q-0.762352 0.71817017 -0.8175888 1.4363098q-0.044197083 0.7292175 0.5192795 1.2926941q0.47509003 0.47506714 1.049614 0.47506714q0.56347656 0.011077881 1.038559 -0.46401978q0.46404266 -0.4640503 0.46404266 -1.1269531q0 -0.6408081 -0.54138184 -1.3368835l1.9555969 -1.381073q0.6739578 1.0275269 0.83968353 1.8782654q0.16573334 0.87283325 -0.17677307 1.789856q-0.33145905 0.92807007 -1.1159058 1.7125244q-1.3258209 1.3258362 -2.9831085 1.2816467q-1.3589706 -0.03314209 -2.231804 -0.90597534q-1.2484818 -1.2485046 -0.6297684 -3.3477173q-0.9833145 0.65185547 -2.0771255 0.5303345q-1.0938034 -0.12155151 -1.9445419 -0.97229004q-1.2484818 -1.2484741 -1.2153397 -3.0493774q0.03314209 -1.7788391 1.3810654 -3.1267395q1.2816315 -1.2816467 2.8726273 -1.3921204q1.5799408 -0.09945679 2.9057617 0.96121216z" fill-rule="nonzero"/><path fill="#ff00ff" d="m802.01306 668.36316l38.281616 -38.281616l27.387634 0l19.345581 19.34552l0 0l-65.66931 65.66931l0 0l-19.34552 -19.345581z" fill-rule="evenodd"/><path stroke="#000000" stroke-width="1.0" stroke-linejoin="round" stroke-linecap="butt" d="m802.01306 668.36316l38.281616 -38.281616l27.387634 0l19.345581 19.34552l0 0l-65.66931 65.66931l0 0l-19.34552 -19.345581z" fill-rule="evenodd"/><path fill="#000000" d="m829.3379 690.71094l-9.446533 -9.446472l2.850525 -2.850525l8.153809 4.72876l-4.7508545 -8.131714l2.8615723 -2.8615723l9.446533 9.446472l-1.7678223 1.7678223l-7.435669 -7.43573l5.557434 9.313965l-1.8340454 1.8340454l-9.302856 -5.5684814l7.435669 7.435669l-1.7677612 1.7677612zm10.955811 -10.955811l-9.446472 -9.446533l1.9003296 -1.9003296l9.446533 9.446472l-1.9003906 1.9003906zm6.294739 -13.233215l2.430664 -1.2595215q1.1269531 1.9666138 0.88391113 3.7122803q-0.23205566 1.7346191 -1.7567139 3.2593384q-1.8782959 1.8782349 -4.375244 1.8119507q-2.4969482 -0.088378906 -4.72876 -2.3201904q-2.3533325 -2.3533325 -2.4417725 -4.8723755q-0.088378906 -2.519104 1.8893433 -4.496765q1.7346191 -1.7346191 3.8338013 -1.8009033q1.2595825 -0.04425049 2.7179565 0.77337646l-1.4362793 2.3422852q-0.90600586 -0.5745239 -1.8562012 -0.4640503q-0.96118164 0.09942627 -1.7235718 0.8618164q-1.0495605 1.0496216 -0.9501343 2.4748535q0.09942627 1.4031372 1.7788086 3.0825195q1.789856 1.789917 3.1929932 1.911438q1.4142456 0.11047363 2.4417725 -0.9170532q0.7623291 -0.7623291 0.8286133 -1.7788086q0.06628418 -1.0385742 -0.729187 -2.3201904zm14.849243 -7.9107666l-1.8119507 1.8119507l-6.8169556 -6.8169556q-0.06628418 1.9224854 -0.97229004 3.7123413l-1.6462402 -1.6462402q0.48614502 -0.9501953 0.6739502 -2.4196167q0.17681885 -1.4805298 -0.37561035 -2.6516724l1.4694214 -1.4694214l9.479675 9.479614z" fill-rule="nonzero"/><path fill="#000000" fill-opacity="0.0" d="m822.31683 275.4787l0 126.55969l-68.8504 0l0 77.28284" fill-rule="evenodd"/><path stroke="#000000" stroke-width="3.0" stroke-linejoin="round" stroke-linecap="butt" d="m822.31683 275.4787l0 126.55969l-68.8504 0l0 77.28284" fill-rule="evenodd"/><path fill="#000000" fill-opacity="0.0" d="m137.73592 276.81308l0 12.006256l198.70866 0l0 107.36383" fill-rule="evenodd"/><path stroke="#000000" stroke-width="3.0" stroke-linejoin="round" stroke-linecap="butt" d="m137.73592 276.81308l0 12.006256l198.70866 0l0 107.36383" fill-rule="evenodd"/><path fill="#ffff00" d="m1112.614 501.21588l0 0c18.064209 29.559631 54.96228 42.561646 88.83923 31.304932c33.876953 -11.256775 55.686157 -43.766235 52.509766 -78.27289c-3.1762695 -34.506622 -30.489868 -61.795563 -65.762695 -65.70343c-35.27295 -3.907898 -69.08557 16.608917 -81.410645 49.398163l71.38342 24.359863z" fill-rule="evenodd"/><path stroke="#000000" stroke-width="1.0" stroke-linejoin="round" stroke-linecap="butt" d="m1112.614 501.21588l0 0c18.064209 29.559631 54.96228 42.561646 88.83923 31.304932c33.876953 -11.256775 55.686157 -43.766235 52.509766 -78.27289c-3.1762695 -34.506622 -30.489868 -61.795563 -65.762695 -65.70343c-35.27295 -3.907898 -69.08557 16.608917 -81.410645 49.398163l71.38342 24.359863z" fill-rule="evenodd"/><path fill="#000000" d="m1119.9712 581.1706l0 0c-22.525757 0 -43.237183 -23.547546 -53.941895 -61.32837c-10.704834 -37.780823 -9.678589 -83.70917 2.6727295 -119.61798c12.351318 -35.908813 34.038208 -56.013916 56.4823 -52.36264l-0.35339355 7.891571l0 0c-19.592896 -3.6489258 -38.58423 14.953033 -49.43701 48.423157c-10.852783 33.470154 -11.8116455 76.395355 -2.4960938 111.739624c9.315552 35.3443 27.398926 57.39142 47.073364 57.39142z" fill-rule="evenodd"/><path stroke="#000000" stroke-width="1.0" stroke-linejoin="round" stroke-linecap="butt" d="m1119.9712 581.1706l0 0c-22.525757 0 -43.237183 -23.547546 -53.941895 -61.32837c-10.704834 -37.780823 -9.678589 -83.70917 2.6727295 -119.61798c12.351318 -35.908813 34.038208 -56.013916 56.4823 -52.36264l-0.35339355 7.891571l0 0c-19.592896 -3.6489258 -38.58423 14.953033 -49.43701 48.423157c-10.852783 33.470154 -11.8116455 76.395355 -2.4960938 111.739624c9.315552 35.3443 27.398926 57.39142 47.073364 57.39142z" fill-rule="evenodd"/><path fill="#000000" d="m1068.6979 624.6247l0 0c-25.399292 0 -48.791748 -31.721619 -61.070312 -82.81537c-12.2786255 -51.09372 -11.50293 -113.48514 2.0249634 -162.8847c13.527893 -49.399567 37.670227 -78.00058 63.02826 -74.668396l-0.16894531 6.785858l0 0c-22.920044 -3.3882751 -44.781006 23.887146 -57.055603 71.18674c-12.274597 47.29959 -13.018372 107.13083 -1.9411621 156.1549c11.077209 49.024048 32.220764 79.47528 55.1828 79.47528z" fill-rule="evenodd"/><path stroke="#000000" stroke-width="1.0" stroke-linejoin="round" stroke-linecap="butt" d="m1068.6979 624.6247l0 0c-25.399292 0 -48.791748 -31.721619 -61.070312 -82.81537c-12.2786255 -51.09372 -11.50293 -113.48514 2.0249634 -162.8847c13.527893 -49.399567 37.670227 -78.00058 63.02826 -74.668396l-0.16894531 6.785858l0 0c-22.920044 -3.3882751 -44.781006 23.887146 -57.055603 71.18674c-12.274597 47.29959 -13.018372 107.13083 -1.9411621 156.1549c11.077209 49.024048 32.220764 79.47528 55.1828 79.47528z" fill-rule="evenodd"/><path fill="#000000" d="m1007.59845 674.49866l0 0c-24.46875 0 -47.06073 -40.43042 -59.1969 -105.93811c-12.136169 -65.50766 -11.954773 -146.04398 0.4751587 -211.02582c12.429993 -64.98181 35.201904 -104.44121 59.668274 -103.39374l-0.026123047 5.800812c-22.391418 -1.0828552 -43.24164 37.2507 -54.628845 100.43637c-11.387207 63.18567 -11.563599 141.52524 -0.4621582 205.2547c11.101379 63.72937 31.776672 103.06702 54.170593 103.06702z" fill-rule="evenodd"/><path stroke="#000000" stroke-width="1.0" stroke-linejoin="round" stroke-linecap="butt" d="m1007.59845 674.49866l0 0c-24.46875 0 -47.06073 -40.43042 -59.1969 -105.93811c-12.136169 -65.50766 -11.954773 -146.04398 0.4751587 -211.02582c12.429993 -64.98181 35.201904 -104.44121 59.668274 -103.39374l-0.026123047 5.800812c-22.391418 -1.0828552 -43.24164 37.2507 -54.628845 100.43637c-11.387207 63.18567 -11.563599 141.52524 -0.4621582 205.2547c11.101379 63.72937 31.776672 103.06702 54.170593 103.06702z" fill-rule="evenodd"/><path fill="#999999" d="m232.91602 206.16798l0 0c-34.433 0 -62.346466 31.12149 -62.346466 69.511795l0 0c0 38.39032 27.913467 69.51181 62.346466 69.51181l0 0c16.535309 0 32.39337 -7.3235474 44.0856 -20.359528c11.69223 -13.03598 18.260864 -30.716583 18.260864 -49.152283l0 0c0 -18.435669 -6.568634 -36.116272 -18.260864 -49.152267l18.260864 0l0 -20.359528z" fill-rule="evenodd"/><path stroke="#000000" stroke-width="1.0" stroke-linejoin="round" stroke-linecap="butt" d="m232.91602 206.16798l0 0c-34.433 0 -62.346466 31.12149 -62.346466 69.511795l0 0c0 38.39032 27.913467 69.51181 62.346466 69.51181l0 0c16.535309 0 32.39337 -7.3235474 44.0856 -20.359528c11.69223 -13.03598 18.260864 -30.716583 18.260864 -49.152283l0 0c0 -18.435669 -6.568634 -36.116272 -18.260864 -49.152267l18.260864 0l0 -20.359528z" fill-rule="evenodd"/><path fill="#000000" d="m248.57704 279.7598l0 13.25l-2.6875 0l0 -11.0l-6.703125 0l0 -2.25l9.390625 0zm-16.89598 3.078125l-2.546875 -0.421875q0.484375 -1.40625 1.546875 -2.140625q1.0625 -0.734375 2.65625 -0.734375q2.515625 0 3.734375 1.65625q0.953125 1.3125 0.953125 3.328125q0 2.40625 -1.25 3.765625q-1.265625 1.359375 -3.1875 1.359375q-2.15625 0 -3.40625 -1.421875q-1.25 -1.421875 -1.1875 -4.375l6.40625 0q-0.03125 -1.140625 -0.609375 -1.78125q-0.59375 -0.625 -1.484375 -0.625q-0.59375 0 -1.0 0.328125q-0.421875 0.328125 -0.625 1.0625zm-0.15625 2.59375q0.03125 1.109375 0.578125 1.6875q0.546875 0.578125 1.328125 0.578125q0.84375 0 1.390625 -0.609375q0.546875 -0.609375 0.53125 -1.65625l-3.828125 0zm-3.5007172 4.0l-1.421875 0l0 0.734375q0 1.21875 -0.25 1.8125q-0.265625 0.609375 -0.953125 0.984375q-0.703125 0.375 -1.78125 0.375q-1.09375 0 -2.140625 -0.328125l0.359375 -1.78125q0.609375 0.140625 1.171875 0.140625q0.546875 0 0.796875 -0.265625q0.234375 -0.25 0.234375 -0.984375l0 -0.6875l-1.90625 0l0 -2.015625l1.90625 0l0 -7.65625l2.5625 0l0 7.65625l1.421875 0l0 2.015625zm-11.775177 0l0 -2.03125l1.75 0l0 -3.90625q0 -1.1875 -0.046875 -1.390625q-0.046875 -0.1875 -0.21875 -0.3125q-0.1875 -0.125 -0.4375 -0.125q-0.359375 0 -1.03125 0.25l-0.21875 -2.0q0.890625 -0.375 2.015625 -0.375q0.703125 0 1.265625 0.234375q0.546875 0.234375 0.8125 0.59375q0.25 0.375 0.34375 1.0q0.09375 0.453125 0.09375 1.8125l0 4.21875l1.171875 0l0 2.03125l-1.171875 0l0 1.921875l-2.578125 1.5l0 -3.421875l-1.75 0z" fill-rule="nonzero"/><path fill="#000000" d="m257.49075 257.7598l0 13.359375l-4.0312653 0l-2.421875 -9.109375l-2.390625 9.109375l-4.046875 0l0 -13.359375l2.5 0l0 10.515625l2.65625 -10.515625l2.59375 0l2.640625 10.515625l0 -10.515625l2.5000153 0zm-14.962692 4.96875q0 1.28125 -0.625 2.46875q-0.625 1.203125 -1.78125 1.828125q-1.15625 0.625 -2.578125 0.625q-2.1875 0 -3.59375 -1.421875q-1.40625 -1.421875 -1.40625 -3.609375q0 -2.1875 1.421875 -3.640625q1.421875 -1.4375 3.5625 -1.4375q1.328125 0 2.546875 0.59375q1.203125 0.609375 1.828125 1.765625q0.625 1.171875 0.625 2.828125zm-2.625 -0.125q0 -1.453125 -0.671875 -2.21875q-0.6875 -0.75 -1.6875 -0.75q-1.0 0 -1.671875 0.75q-0.6875 0.765625 -0.6875 2.234375q0 1.421875 0.6875 2.1875q0.671875 0.765625 1.671875 0.765625q1.0 0 1.6875 -0.765625q0.671875 -0.765625 0.671875 -2.203125zm-13.802231 4.828125l0 -2.03125l1.75 0l0 -3.90625q0 -1.1875 -0.046875 -1.390625q-0.046875 -0.1875 -0.21875 -0.3125q-0.1875 -0.125 -0.4375 -0.125q-0.359375 0 -1.03125 0.25l-0.21875 -2.0q0.890625 -0.375 2.015625 -0.375q0.703125 0 1.265625 0.234375q0.546875 0.234375 0.8125 0.59375q0.25 0.375 0.34375 1.0q0.09375 0.453125 0.09375 1.8125l0 4.21875l1.171875 0l0 2.03125l-1.171875 0l0 1.921875l-2.578125 1.5l0 -3.421875l-1.75 0zm-1.181427 -4.703125q0 1.28125 -0.625 2.46875q-0.625 1.203125 -1.78125 1.828125q-1.15625 0.625 -2.578125 0.625q-2.1875 0 -3.59375 -1.421875q-1.40625 -1.421875 -1.40625 -3.609375q0 -2.1875 1.421875 -3.640625q1.421875 -1.4375 3.5625 -1.4375q1.328125 0 2.546875 0.59375q1.203125 0.609375 1.828125 1.765625q0.625 1.171875 0.625 2.828125zm-2.625 -0.125q0 -1.453125 -0.671875 -2.21875q-0.6875 -0.75 -1.6875 -0.75q-1.0 0 -1.671875 0.75q-0.6875 0.765625 -0.6875 2.234375q0 1.421875 0.6875 2.1875q0.671875 0.765625 1.671875 0.765625q1.0 0 1.6875 -0.765625q0.671875 -0.765625 0.671875 -2.203125zm-11.817856 -4.84375l2.5625 0l0 9.671875l-2.375 0l0 -1.375q-0.609375 0.984375 -1.09375 1.28125q-0.484375 0.3125 -1.109375 0.3125q-0.875 0 -1.6875 -0.484375l0.796875 -2.234375q0.640625 0.421875 1.203125 0.421875q0.53125 0 0.90625 -0.296875q0.375 -0.296875 0.59375 -1.078125q0.203125 -0.765625 0.203125 -3.234375l0 -2.984375z" fill-rule="nonzero"/><path fill="#999999" d="m231.98701 722.60895l0 0c-33.91986 0 -61.417328 -31.121521 -61.417328 -69.51184l0 0c0 -38.39032 27.497467 -69.51178 61.417328 -69.51178l0 0c16.28888 0 31.91063 7.3235474 43.428604 20.359497c11.517975 13.036011 17.988708 30.716614 17.988708 49.152283l0 0c0 18.435669 -6.4707336 36.116272 -17.988708 49.152283l17.988708 0l0 20.359558z" fill-rule="evenodd"/><path stroke="#000000" stroke-width="1.0" stroke-linejoin="round" stroke-linecap="butt" d="m231.98701 722.60895l0 0c-33.91986 0 -61.417328 -31.121521 -61.417328 -69.51184l0 0c0 -38.39032 27.497467 -69.51178 61.417328 -69.51178l0 0c16.28888 0 31.91063 7.3235474 43.428604 20.359497c11.517975 13.036011 17.988708 30.716614 17.988708 49.152283l0 0c0 18.435669 -6.4707336 36.116272 -17.988708 49.152283l17.988708 0l0 20.359558z" fill-rule="evenodd"/><path fill="#000000" d="m209.51593 649.0171l0 -13.359375l5.6875 0q2.140625 0 3.109375 0.359375q0.96875 0.359375 1.546875 1.28125q0.578125 0.921875 0.578125 2.109375q0 1.5 -0.890625 2.484375q-0.875 0.96875 -2.625 1.234375q0.875 0.5 1.4375 1.125q0.578125 0.609375 1.53125 2.15625l1.640625 2.609375l-3.234375 0l-1.9375 -2.90625q-1.046875 -1.5625 -1.4375 -1.96875q-0.375 -0.40625 -0.8125 -0.546875q-0.421875 -0.15625 -1.34375 -0.15625l-0.546875 0l0 5.578125l-2.703125 0zm2.703125 -7.703125l2.0 0q1.9375 0 2.421875 -0.15625q0.484375 -0.171875 0.75 -0.578125q0.28125 -0.40625 0.28125 -1.0q0 -0.671875 -0.359375 -1.078125q-0.359375 -0.421875 -1.015625 -0.53125q-0.328125 -0.046875 -1.96875 -0.046875l-2.109375 0l0 3.390625zm10.754196 -3.28125l0 -2.375l2.5625 0l0 2.375l-2.5625 0zm0 10.984375l0 -9.671875l2.5625 0l0 9.671875l-2.5625 0zm4.948929 0.640625l2.921875 0.359375q0.0625 0.5 0.328125 0.6875q0.375 0.28125 1.15625 0.28125q1.0 0 1.5 -0.296875q0.328125 -0.203125 0.515625 -0.65625q0.109375 -0.3125 0.109375 -1.171875l0 -1.40625q-1.140625 1.5625 -2.890625 1.5625q-1.953125 0 -3.09375 -1.65625q-0.890625 -1.296875 -0.890625 -3.234375q0 -2.4375 1.171875 -3.71875q1.171875 -1.28125 2.90625 -1.28125q1.796875 0 2.96875 1.578125l0 -1.359375l2.390625 0l0 8.671875q0 1.71875 -0.28125 2.5625q-0.28125 0.84375 -0.796875 1.328125q-0.5 0.484375 -1.359375 0.75q-0.84375 0.28125 -2.15625 0.28125q-2.453125 0 -3.484375 -0.84375q-1.03125 -0.84375 -1.03125 -2.125q0 -0.140625 0.015625 -0.3125zm2.28125 -5.671875q0 1.53125 0.59375 2.25q0.59375 0.71875 1.46875 0.71875q0.9375 0 1.578125 -0.734375q0.65625 -0.734375 0.65625 -2.171875q0 -1.515625 -0.625 -2.234375q-0.609375 -0.734375 -1.5625 -0.734375q-0.921875 0 -1.515625 0.71875q-0.59375 0.71875 -0.59375 2.1875zm11.895981 -8.328125l0 4.921875q1.234375 -1.453125 2.953125 -1.453125q0.890625 0 1.59375 0.328125q0.71875 0.328125 1.078125 0.84375q0.359375 0.5 0.484375 1.125q0.140625 0.609375 0.140625 1.921875l0 5.671875l-2.5625 0l0 -5.109375q0 -1.515625 -0.15625 -1.921875q-0.140625 -0.421875 -0.515625 -0.65625q-0.359375 -0.25 -0.90625 -0.25q-0.640625 0 -1.140625 0.3125q-0.5 0.3125 -0.734375 0.9375q-0.234375 0.625 -0.234375 1.84375l0 4.84375l-2.5625 0l0 -13.359375l2.5625 0zm13.286606 3.6875l0 2.03125l-1.75 0l0 3.90625q0 1.1875 0.046875 1.390625q0.046875 0.1875 0.21875 0.3125q0.1875 0.125 0.4375 0.125q0.359375 0 1.03125 -0.25l0.21875 2.0q-0.890625 0.375 -2.015625 0.375q-0.703125 0 -1.265625 -0.234375q-0.546875 -0.234375 -0.8125 -0.59375q-0.25 -0.375 -0.34375 -1.0q-0.09375 -0.453125 -0.09375 -1.8125l0 -4.21875l-1.171875 0l0 -2.03125l1.171875 0l0 -1.921875l2.578125 -1.5l0 3.421875l1.75 0z" fill-rule="nonzero"/><path fill="#000000" d="m207.41228 671.0171l0 -13.359375l4.03125 0l2.421875 9.109375l2.390625 -9.109375l4.046875 0l0 13.359375l-2.5 0l0 -10.515625l-2.65625 10.515625l-2.59375 0l-2.640625 -10.515625l0 10.515625l-2.5 0zm14.962677 -4.96875q0 -1.28125 0.625 -2.46875q0.625 -1.203125 1.78125 -1.828125q1.15625 -0.625 2.578125 -0.625q2.1875 0 3.59375 1.421875q1.40625 1.421875 1.40625 3.609375q0 2.1875 -1.421875 3.640625q-1.421875 1.4375 -3.5625 1.4375q-1.328125 0 -2.546875 -0.59375q-1.203125 -0.609375 -1.828125 -1.765625q-0.625 -1.171875 -0.625 -2.828125zm2.625 0.125q0 1.453125 0.671875 2.21875q0.6875 0.75 1.6875 0.75q1.0 0 1.671875 -0.75q0.6875 -0.765625 0.6875 -2.234375q0 -1.421875 -0.6875 -2.1875q-0.671875 -0.765625 -1.671875 -0.765625q-1.0 0 -1.6875 0.765625q-0.671875 0.765625 -0.671875 2.203125zm13.802231 -4.828125l0 2.03125l-1.75 0l0 3.90625q0 1.1875 0.046875 1.390625q0.046875 0.1875 0.21875 0.3125q0.1875 0.125 0.4375 0.125q0.359375 0 1.03125 -0.25l0.21875 2.0q-0.890625 0.375 -2.015625 0.375q-0.703125 0 -1.265625 -0.234375q-0.546875 -0.234375 -0.8125 -0.59375q-0.25 -0.375 -0.34375 -1.0q-0.09375 -0.453125 -0.09375 -1.8125l0 -4.21875l-1.171875 0l0 -2.03125l1.171875 0l0 -1.921875l2.578125 -1.5l0 3.421875l1.75 0zm1.181427 4.703125q0 -1.28125 0.625 -2.46875q0.625 -1.203125 1.78125 -1.828125q1.15625 -0.625 2.578125 -0.625q2.1875 0 3.59375 1.421875q1.40625 1.421875 1.40625 3.609375q0 2.1875 -1.421875 3.640625q-1.421875 1.4375 -3.5625 1.4375q-1.328125 0 -2.546875 -0.59375q-1.203125 -0.609375 -1.828125 -1.765625q-0.625 -1.171875 -0.625 -2.828125zm2.625 0.125q0 1.453125 0.671875 2.21875q0.6875 0.75 1.6875 0.75q1.0 0 1.671875 -0.75q0.6875 -0.765625 0.6875 -2.234375q0 -1.421875 -0.6875 -2.1875q-0.671875 -0.765625 -1.671875 -0.765625q-1.0 0 -1.6875 0.765625q-0.671875 0.765625 -0.671875 2.203125zm11.817856 4.84375l-2.5625 0l0 -9.671875l2.375 0l0 1.375q0.609375 -0.984375 1.09375 -1.28125q0.484375 -0.3125 1.1093597 -0.3125q0.875 0 1.6875 0.484375l-0.796875 2.234375q-0.640625 -0.421875 -1.203125 -0.421875q-0.53123474 0 -0.90623474 0.296875q-0.375 0.296875 -0.59375 1.078125q-0.203125 0.765625 -0.203125 3.234375l0 2.984375z" fill-rule="nonzero"/><path fill="#000000" fill-opacity="0.0" d="m635.66406 479.3176l-41.543335 0l0 -108.66144" fill-rule="evenodd"/><path stroke="#000000" stroke-width="3.0" stroke-linejoin="round" stroke-linecap="butt" d="m635.66406 479.3176l-41.543335 0l0 -108.66144" fill-rule="evenodd"/><path fill="#000000" fill-opacity="0.0" d="m601.99475 472.41733l13.921265 16.251953" fill-rule="evenodd"/><path stroke="#000000" stroke-width="2.0" stroke-linejoin="round" stroke-linecap="butt" d="m601.99475 472.41733l13.921265 16.251953" fill-rule="evenodd"/><path fill="#000000" fill-opacity="0.0" d="m503.47433 327.30917l-25.173553 0l0 -0.12597656l-25.18866 0" fill-rule="evenodd"/><path stroke="#000000" stroke-width="3.0" stroke-linejoin="round" stroke-linecap="butt" d="m503.47433 327.30917l-25.173553 0l0 -0.12597656l-25.18866 0" fill-rule="evenodd"/><path fill="#000000" fill-opacity="0.0" d="m503.47433 327.30917l-25.18161 0l0 235.8425l-25.180603 0" fill-rule="evenodd"/><path stroke="#000000" stroke-width="3.0" stroke-linejoin="round" stroke-linecap="butt" d="m503.47433 327.30917l-25.18161 0l0 235.8425l-25.180603 0" fill-rule="evenodd"/><path fill="#000000" fill-opacity="0.0" d="m358.2073 327.19894l-31.472137 0l0 -51.527557l-31.457 0" fill-rule="evenodd"/><path stroke="#000000" stroke-width="4.0" stroke-linejoin="round" stroke-linecap="butt" d="m358.2073 327.19894l-31.472137 0l0 -51.527557l-31.457 0" fill-rule="evenodd"/><path fill="#000000" fill-opacity="0.0" d="m358.19147 563.13855l-32.393707 0l0 89.95276l-32.393707 0" fill-rule="evenodd"/><path stroke="#000000" stroke-width="4.0" stroke-linejoin="round" stroke-linecap="butt" d="m358.19147 563.13855l-32.393707 0l0 89.95276l-32.393707 0" fill-rule="evenodd"/><path fill="#000000" fill-opacity="0.0" d="m821.1539 649.22235l0 -169.88977l-67.68506 0" fill-rule="evenodd"/><path stroke="#000000" stroke-width="3.0" stroke-linejoin="round" stroke-linecap="butt" d="m821.1539 649.22235l0 -169.88977l-67.68506 0" fill-rule="evenodd"/><path fill="#000000" d="m95.456696 172.83478l0 0c0 -3.6819763 2.9848251 -6.666794 6.666794 -6.666794l176.61916 0c1.768158 0 3.4638672 0.7023926 4.714142 1.952652c1.2502747 1.2502747 1.9526672 2.9459991 1.9526672 4.714142l0 26.666397c0 3.6819763 -2.9848328 6.666809 -6.666809 6.666809l-176.61916 0c-3.6819687 0 -6.666794 -2.9848328 -6.666794 -6.666809z" fill-rule="evenodd"/><path stroke="#000000" stroke-width="1.0" stroke-linejoin="round" stroke-linecap="butt" d="m95.456696 172.83478l0 0c0 -3.6819763 2.9848251 -6.666794 6.666794 -6.666794l176.61916 0c1.768158 0 3.4638672 0.7023926 4.714142 1.952652c1.2502747 1.2502747 1.9526672 2.9459991 1.9526672 4.714142l0 26.666397c0 3.6819763 -2.9848328 6.666809 -6.666809 6.666809l-176.61916 0c-3.6819687 0 -6.666794 -2.9848328 -6.666794 -6.666809z" fill-rule="evenodd"/><path fill="#000000" d="m671.82416 729.2757l0 0c0 -3.6819458 2.9848022 -6.666748 6.666809 -6.666748l176.61914 0c1.7681274 0 3.4638672 0.7023926 4.7141113 1.9526367c1.2503052 1.2502441 1.9526978 2.945984 1.9526978 4.7141113l0 26.666443c0 3.6819458 -2.9848633 6.666809 -6.666809 6.666809l-176.61914 0c-3.6820068 0 -6.666809 -2.9848633 -6.666809 -6.666809z" fill-rule="evenodd"/><path stroke="#000000" stroke-width="1.0" stroke-linejoin="round" stroke-linecap="butt" d="m671.82416 729.2757l0 0c0 -3.6819458 2.9848022 -6.666748 6.666809 -6.666748l176.61914 0c1.7681274 0 3.4638672 0.7023926 4.7141113 1.9526367c1.2503052 1.2502441 1.9526978 2.945984 1.9526978 4.7141113l0 26.666443c0 3.6819458 -2.9848633 6.666809 -6.666809 6.666809l-176.61914 0c-3.6820068 0 -6.666809 -2.9848633 -6.666809 -6.666809z" fill-rule="evenodd"/><path fill="#000000" d="m97.31233 729.2757l0 0c0 -3.6819458 2.9848328 -6.666748 6.6668015 -6.666748l176.61917 0c1.7681274 0 3.4638672 0.7023926 4.714142 1.9526367c1.2502747 1.2502441 1.9526672 2.945984 1.9526672 4.7141113l0 26.666443c0 3.6819458 -2.9848328 6.666809 -6.666809 6.666809l-176.61917 0c-3.6819687 0 -6.6668015 -2.9848633 -6.6668015 -6.666809z" fill-rule="evenodd"/><path stroke="#000000" stroke-width="1.0" stroke-linejoin="round" stroke-linecap="butt" d="m97.31233 729.2757l0 0c0 -3.6819458 2.9848328 -6.666748 6.6668015 -6.666748l176.61917 0c1.7681274 0 3.4638672 0.7023926 4.714142 1.9526367c1.2502747 1.2502441 1.9526672 2.945984 1.9526672 4.7141113l0 26.666443c0 3.6819458 -2.9848328 6.666809 -6.666809 6.666809l-176.61917 0c-3.6819687 0 -6.6668015 -2.9848633 -6.6668015 -6.666809z" fill-rule="evenodd"/><path fill="#000000" d="m671.82416 172.83478l0 0c0 -3.6819763 2.9848022 -6.666794 6.666809 -6.666794l176.61914 0c1.7681274 0 3.4638672 0.7023926 4.7141113 1.952652c1.2503052 1.2502747 1.9526978 2.9459991 1.9526978 4.714142l0 26.666397c0 3.6819763 -2.9848633 6.666809 -6.666809 6.666809l-176.61914 0c-3.6820068 0 -6.666809 -2.9848328 -6.666809 -6.666809z" fill-rule="evenodd"/><path stroke="#000000" stroke-width="1.0" stroke-linejoin="round" stroke-linecap="butt" d="m671.82416 172.83478l0 0c0 -3.6819763 2.9848022 -6.666794 6.666809 -6.666794l176.61914 0c1.7681274 0 3.4638672 0.7023926 4.7141113 1.952652c1.2503052 1.2502747 1.9526978 2.9459991 1.9526978 4.714142l0 26.666397c0 3.6819763 -2.9848633 6.666809 -6.666809 6.666809l-176.61914 0c-3.6820068 0 -6.666809 -2.9848328 -6.666809 -6.666809z" fill-rule="evenodd"/><path fill="#ff00ff" d="m118.59485 630.0813l38.28163 38.281616l0 27.387634l-19.345535 19.345581l0 0l-65.6693 -65.66931l0 0l19.345543 -19.34552z" fill-rule="evenodd"/><path stroke="#000000" stroke-width="1.0" stroke-linejoin="round" stroke-linecap="butt" d="m118.59485 630.0813l38.28163 38.281616l0 27.387634l-19.345535 19.345581l0 0l-65.6693 -65.66931l0 0l19.345543 -19.34552z" fill-rule="evenodd"/><path fill="#000000" d="m96.24705 657.4061l9.446503 -9.446533l2.850525 2.850525l-4.728775 8.153809l8.131729 -4.7508545l2.8615723 2.8615723l-9.44651 9.446533l-1.7677612 -1.7677612l7.435669 -7.435669l-9.313927 5.557373l-1.834053 -1.8340454l5.568466 -9.302856l-7.4356766 7.435669l-1.7677612 -1.7677612zm10.955856 10.955811l9.44651 -9.446472l1.9003448 1.9003296l-9.446503 9.446533l-1.9003525 -1.9003906zm13.233192 6.294739l1.2595367 2.430664q-1.9666443 1.1269531 -3.7123108 0.88391113q-1.7346268 -0.23205566 -3.2593231 -1.7567139q-1.8782501 -1.8782959 -1.8119583 -4.375244q0.088386536 -2.4969482 2.3201904 -4.72876q2.3533401 -2.3533325 4.872406 -2.4417725q2.5190735 -0.088378906 4.4967575 1.8893433q1.7346191 1.7346191 1.800911 3.8338013q0.044197083 1.2595825 -0.7733917 2.7179565l-2.3422928 -1.4362793q0.5745239 -0.90600586 0.46403503 -1.8562012q-0.0994339 -0.96118164 -0.8617859 -1.7235718q-1.0496063 -1.0495605 -2.4748688 -0.9501343q-1.4031677 0.09942627 -3.08255 1.7788086q-1.7898636 1.789856 -1.9113922 3.1929932q-0.11048889 1.4142456 0.9170227 2.4417725q0.762352 0.7623291 1.7788162 0.8286133q1.0385666 0.06628418 2.320198 -0.729187zm11.070633 14.650391l-1.6793671 1.6793213l-6.3418655 -6.341858q1.0496063 -0.850708 2.408577 -1.1932373q1.381073 -0.34246826 4.3089294 -0.22094727q2.3754425 0.07733154 3.049408 -0.044189453q0.93911743 -0.18780518 1.4915466 -0.7402344q0.59661865 -0.59661865 0.5855713 -1.2485352q0.011047363 -0.65185547 -0.56347656 -1.2263794q-0.56347656 -0.56347656 -1.2484741 -0.56347656q-0.6629181 0 -1.5136566 0.7402954l-1.6241302 -1.9777222q1.6572723 -1.3258057 3.1488342 -1.1380005q1.502594 0.19885254 2.7842255 1.4805298q1.3921204 1.3920898 1.4363098 2.9389038q0.055252075 1.5578613 -1.071701 2.6848145q-0.629776 0.62976074 -1.4473572 0.98327637q-0.7955017 0.35357666 -1.9224548 0.48614502q-0.751297 0.088378906 -2.3975372 0.011047363q-1.6351776 -0.06628418 -2.13237 -0.03314209q-0.4750824 0.03314209 -0.86177826 0.13256836l3.590767 3.5908203z" fill-rule="nonzero"/><path fill="#000000" fill-opacity="0.0" d="m335.29135 395.03412l443.1716 0l0 84.28348l-24.998413 0" fill-rule="evenodd"/><path stroke="#000000" stroke-width="3.0" stroke-linejoin="round" stroke-linecap="butt" d="m335.29135 395.03412l443.1716 0l0 84.28348l-24.998413 0" fill-rule="evenodd"/><path fill="#000000" fill-opacity="0.0" d="m137.73567 649.2221l0 -135.27167l20.031494 0l0 -116.12991" fill-rule="evenodd"/><path stroke="#000000" stroke-width="3.0" stroke-linejoin="round" stroke-linecap="butt" d="m137.73567 649.2221l0 -135.27167l20.031494 0l0 -116.12991" fill-rule="evenodd"/><path fill="#ff0000" d="m218.0887 31.458685c9.168976 0 15.872253 1.8844204 20.109863 5.653265c4.2563477 3.7688408 6.3845367 8.578331 6.3845367 14.428474c0 3.993847 -1.0969086 7.6970634 -3.2907104 11.109646c-2.1938019 3.393837 -5.400131 5.8688965 -9.618988 7.4251785c-4.2188416 1.5375443 -10.068985 2.306305 -17.55043 2.306305l-35.185226 0l0 -40.922867zm-55.520096 -13.669081l0 123.696754l16.36914 0l0 -54.92946l18.984833 0c4.218857 0 7.256439 0.19688416 9.112732 0.5906372c2.531311 0.6187668 5.015732 1.7156677 7.453308 3.2907104c2.4562988 1.5750351 5.231369 4.331352 8.325195 8.268951c3.0938263 3.9375916 7.031418 9.61898 11.81279 17.044167l16.36914 25.734993l20.587997 0l-21.516144 -33.666443c-4.2751007 -6.5814056 -8.803329 -12.065918 -13.584702 -16.453522c-2.2500458 -2.0250473 -5.540756 -4.078224 -9.872116 -6.159523c11.869034 -1.6312943 20.644257 -5.4563828 26.325638 -11.475281c5.681381 -6.018898 8.522079 -13.415951 8.522079 -22.191166c0 -6.8064156 -1.7156677 -13.02219 -5.147003 -18.647327c-3.4313202 -5.6251373 -8.015808 -9.543985 -13.7534485 -11.7565365c-5.7376404 -2.231306 -14.119095 -3.3469563 -25.144363 -3.3469563z" fill-rule="evenodd"/><path fill="#ff0000" d="m289.47168 124.189064l0 17.297295l17.297302 0l0 -17.297295z" fill-rule="evenodd"/><path fill="#ff0000" d="m389.4585 29.686768c8.156433 0 15.506622 2.0719242 22.050537 6.2157745c6.5626526 4.125103 11.540894 9.947121 14.934723 17.466053c3.4125977 7.500183 5.1188965 16.284771 5.1188965 26.353764c0 15.919136 -3.984497 28.21006 -11.95343 36.872772c-7.9501953 8.662712 -18.084808 12.994072 -30.40387 12.994072c-12.094025 0 -22.153656 -4.284485 -30.178864 -12.853439c-8.006439 -8.587715 -12.009644 -20.33487 -12.009644 -35.241486c0 -18.619202 4.1719666 -31.9039 12.51593 -39.854095c8.362701 -7.9689407 18.337921 -11.953411 29.92572 -11.953415zm-0.0843811 -14.090968c-17.437927 0 -31.669525 5.81264 -42.694794 17.437927c-11.025269 11.606533 -16.537903 27.67567 -16.537903 48.207424c0 10.856514 2.3625793 21.150513 7.087677 30.881996c4.725128 9.731491 11.67215 17.409798 20.841125 23.034935c9.168976 5.6251373 19.5755 8.437714 31.219513 8.437714c10.744019 0 20.756775 -2.5406952 30.038239 -7.6220703c9.281464 -5.100128 16.453522 -12.600304 21.516144 -22.500542c5.062622 -9.900246 7.593933 -21.12239 7.593933 -33.666443c0 -12.375305 -2.4094238 -23.438072 -7.228302 -33.18831c-4.80011 -9.768986 -11.784668 -17.38167 -20.953644 -22.838057c-9.168945 -5.4563828 -19.462952 -8.184575 -30.881989 -8.184575z" fill-rule="evenodd"/><path fill="#ff0000" d="m471.89487 124.189064l0 17.297295l17.297302 0l0 -17.297295z" fill-rule="evenodd"/><path fill="#ff0000" d="m504.97067 17.789604l47.926178 123.696754l16.791016 0l48.432434 -123.696754l-16.706665 0l-33.41327 89.86156c-2.531311 6.750168 -4.753296 13.500336 -6.6658325 20.250496c-1.7437744 -6.3001556 -3.9094238 -13.050316 -6.4970093 -20.250496l-32.147644 -89.86156z" fill-rule="evenodd"/><path fill="#ff0000" d="m635.1645 124.189064l0 17.297295l17.297302 0l0 -17.297295z" fill-rule="evenodd"/><path fill="#ff0000" d="m736.5857 31.458685c9.168945 0 15.872253 1.8844204 20.109863 5.653265c4.2563477 3.7688408 6.3845215 8.578331 6.3845215 14.428474c0 3.993847 -1.0969238 7.6970634 -3.2907104 11.109646c-2.1937866 3.393837 -5.4001465 5.8688965 -9.6189575 7.4251785c-4.218872 1.5375443 -10.069031 2.306305 -17.550415 2.306305l-35.18524 0l0 -40.922867zm-55.52008 -13.669081l0 123.696754l16.36914 0l0 -54.92946l18.984802 0c4.218872 0 7.2564697 0.19688416 9.112732 0.5906372c2.531311 0.6187668 5.015747 1.7156677 7.453308 3.2907104c2.4562988 1.5750351 5.2313843 4.331352 8.325195 8.268951c3.093811 3.9375916 7.031433 9.61898 11.812805 17.044167l16.36914 25.734993l20.588013 0l-21.516174 -33.666443c-4.2750854 -6.5814056 -8.803345 -12.065918 -13.584717 -16.453522c-2.25 -2.0250473 -5.5407104 -4.078224 -9.87207 -6.159523c11.869019 -1.6312943 20.644226 -5.4563828 26.325623 -11.475281c5.6813965 -6.018898 8.522095 -13.415951 8.522095 -22.191166c0 -6.8064156 -1.7156982 -13.02219 -5.1470337 -18.647327c-3.4313354 -5.6251373 -8.015808 -9.543985 -13.753418 -11.7565365c-5.737671 -2.231306 -14.119141 -3.3469563 -25.14441 -3.3469563z" fill-rule="evenodd"/><path fill="#ff0000" d="m807.9687 124.189064l0 17.297295l17.297302 0l0 -17.297295z" fill-rule="evenodd"/><path stroke="#000000" stroke-width="1.0" stroke-linejoin="round" stroke-linecap="butt" d="m218.0887 31.458685c9.168976 0 15.872253 1.8844204 20.109863 5.653265c4.2563477 3.7688408 6.3845367 8.578331 6.3845367 14.428474c0 3.993847 -1.0969086 7.6970634 -3.2907104 11.109646c-2.1938019 3.393837 -5.400131 5.8688965 -9.618988 7.4251785c-4.2188416 1.5375443 -10.068985 2.306305 -17.55043 2.306305l-35.185226 0l0 -40.922867zm-55.520096 -13.669081l0 123.696754l16.36914 0l0 -54.92946l18.984833 0c4.218857 0 7.256439 0.19688416 9.112732 0.5906372c2.531311 0.6187668 5.015732 1.7156677 7.453308 3.2907104c2.4562988 1.5750351 5.231369 4.331352 8.325195 8.268951c3.0938263 3.9375916 7.031418 9.61898 11.81279 17.044167l16.36914 25.734993l20.587997 0l-21.516144 -33.666443c-4.2751007 -6.5814056 -8.803329 -12.065918 -13.584702 -16.453522c-2.2500458 -2.0250473 -5.540756 -4.078224 -9.872116 -6.159523c11.869034 -1.6312943 20.644257 -5.4563828 26.325638 -11.475281c5.681381 -6.018898 8.522079 -13.415951 8.522079 -22.191166c0 -6.8064156 -1.7156677 -13.02219 -5.147003 -18.647327c-3.4313202 -5.6251373 -8.015808 -9.543985 -13.7534485 -11.7565365c-5.7376404 -2.231306 -14.119095 -3.3469563 -25.144363 -3.3469563z" fill-rule="evenodd"/><path stroke="#000000" stroke-width="1.0" stroke-linejoin="round" stroke-linecap="butt" d="m289.47168 124.189064l0 17.297295l17.297302 0l0 -17.297295z" fill-rule="evenodd"/><path stroke="#000000" stroke-width="1.0" stroke-linejoin="round" stroke-linecap="butt" d="m389.4585 29.686768c8.156433 0 15.506622 2.0719242 22.050537 6.2157745c6.5626526 4.125103 11.540894 9.947121 14.934723 17.466053c3.4125977 7.500183 5.1188965 16.284771 5.1188965 26.353764c0 15.919136 -3.984497 28.21006 -11.95343 36.872772c-7.9501953 8.662712 -18.084808 12.994072 -30.40387 12.994072c-12.094025 0 -22.153656 -4.284485 -30.178864 -12.853439c-8.006439 -8.587715 -12.009644 -20.33487 -12.009644 -35.241486c0 -18.619202 4.1719666 -31.9039 12.51593 -39.854095c8.362701 -7.9689407 18.337921 -11.953411 29.92572 -11.953415zm-0.0843811 -14.090968c-17.437927 0 -31.669525 5.81264 -42.694794 17.437927c-11.025269 11.606533 -16.537903 27.67567 -16.537903 48.207424c0 10.856514 2.3625793 21.150513 7.087677 30.881996c4.725128 9.731491 11.67215 17.409798 20.841125 23.034935c9.168976 5.6251373 19.5755 8.437714 31.219513 8.437714c10.744019 0 20.756775 -2.5406952 30.038239 -7.6220703c9.281464 -5.100128 16.453522 -12.600304 21.516144 -22.500542c5.062622 -9.900246 7.593933 -21.12239 7.593933 -33.666443c0 -12.375305 -2.4094238 -23.438072 -7.228302 -33.18831c-4.80011 -9.768986 -11.784668 -17.38167 -20.953644 -22.838057c-9.168945 -5.4563828 -19.462952 -8.184575 -30.881989 -8.184575z" fill-rule="evenodd"/><path stroke="#000000" stroke-width="1.0" stroke-linejoin="round" stroke-linecap="butt" d="m471.89487 124.189064l0 17.297295l17.297302 0l0 -17.297295z" fill-rule="evenodd"/><path stroke="#000000" stroke-width="1.0" stroke-linejoin="round" stroke-linecap="butt" d="m504.97067 17.789604l47.926178 123.696754l16.791016 0l48.432434 -123.696754l-16.706665 0l-33.41327 89.86156c-2.531311 6.750168 -4.753296 13.500336 -6.6658325 20.250496c-1.7437744 -6.3001556 -3.9094238 -13.050316 -6.4970093 -20.250496l-32.147644 -89.86156z" fill-rule="evenodd"/><path stroke="#000000" stroke-width="1.0" stroke-linejoin="round" stroke-linecap="butt" d="m635.1645 124.189064l0 17.297295l17.297302 0l0 -17.297295z" fill-rule="evenodd"/><path stroke="#000000" stroke-width="1.0" stroke-linejoin="round" stroke-linecap="butt" d="m736.5857 31.458685c9.168945 0 15.872253 1.8844204 20.109863 5.653265c4.2563477 3.7688408 6.3845215 8.578331 6.3845215 14.428474c0 3.993847 -1.0969238 7.6970634 -3.2907104 11.109646c-2.1937866 3.393837 -5.4001465 5.8688965 -9.6189575 7.4251785c-4.218872 1.5375443 -10.069031 2.306305 -17.550415 2.306305l-35.18524 0l0 -40.922867zm-55.52008 -13.669081l0 123.696754l16.36914 0l0 -54.92946l18.984802 0c4.218872 0 7.2564697 0.19688416 9.112732 0.5906372c2.531311 0.6187668 5.015747 1.7156677 7.453308 3.2907104c2.4562988 1.5750351 5.2313843 4.331352 8.325195 8.268951c3.093811 3.9375916 7.031433 9.61898 11.812805 17.044167l16.36914 25.734993l20.588013 0l-21.516174 -33.666443c-4.2750854 -6.5814056 -8.803345 -12.065918 -13.584717 -16.453522c-2.25 -2.0250473 -5.5407104 -4.078224 -9.87207 -6.159523c11.869019 -1.6312943 20.644226 -5.4563828 26.325623 -11.475281c5.6813965 -6.018898 8.522095 -13.415951 8.522095 -22.191166c0 -6.8064156 -1.7156982 -13.02219 -5.1470337 -18.647327c-3.4313354 -5.6251373 -8.015808 -9.543985 -13.753418 -11.7565365c-5.737671 -2.231306 -14.119141 -3.3469563 -25.14441 -3.3469563z" fill-rule="evenodd"/><path stroke="#000000" stroke-width="1.0" stroke-linejoin="round" stroke-linecap="butt" d="m807.9687 124.189064l0 17.297295l17.297302 0l0 -17.297295z" fill-rule="evenodd"/><path fill="#000000" d="m473.8851 325.767l0 0c0 -2.261322 1.9389343 -4.0944824 4.330719 -4.0944824l0 0c1.1485901 0 2.250122 0.43136597 3.0622864 1.1992493c0.8121643 0.7678528 1.2684326 1.8092957 1.2684326 2.8952332l0 0c0 2.261322 -1.9389343 4.0944824 -4.330719 4.0944824l0 0c-2.3917847 0 -4.330719 -1.8331604 -4.330719 -4.0944824z" fill-rule="evenodd"/><path stroke="#000000" stroke-width="1.0" stroke-linejoin="round" stroke-linecap="butt" d="m473.8851 325.767l0 0c0 -2.261322 1.9389343 -4.0944824 4.330719 -4.0944824l0 0c1.1485901 0 2.250122 0.43136597 3.0622864 1.1992493c0.8121643 0.7678528 1.2684326 1.8092957 1.2684326 2.8952332l0 0c0 2.261322 -1.9389343 4.0944824 -4.330719 4.0944824l0 0c-2.3917847 0 -4.330719 -1.8331604 -4.330719 -4.0944824z" fill-rule="evenodd"/><path fill="#000000" d="m775.5408 395.76288l0 0c0 -2.261322 1.9389648 -4.0944824 4.3307495 -4.0944824l0 0c1.1485596 0 2.250061 0.43139648 3.0622559 1.1992493c0.8121948 0.7678528 1.2684326 1.8093262 1.2684326 2.8952332l0 0c0 2.261322 -1.9389038 4.0944824 -4.3306885 4.0944824l0 0c-2.3917847 0 -4.3307495 -1.8331604 -4.3307495 -4.0944824z" fill-rule="evenodd"/><path stroke="#000000" stroke-width="1.0" stroke-linejoin="round" stroke-linecap="butt" d="m775.5408 395.76288l0 0c0 -2.261322 1.9389648 -4.0944824 4.3307495 -4.0944824l0 0c1.1485596 0 2.250061 0.43139648 3.0622559 1.1992493c0.8121948 0.7678528 1.2684326 1.8093262 1.2684326 2.8952332l0 0c0 2.261322 -1.9389038 4.0944824 -4.3306885 4.0944824l0 0c-2.3917847 0 -4.3307495 -1.8331604 -4.3307495 -4.0944824z" fill-rule="evenodd"/><path fill="#000000" d="m774.0985 479.09357l0 0c0 -2.261322 1.9389648 -4.0944824 4.3307495 -4.0944824l0 0c1.1485596 0 2.250061 0.43136597 3.0622559 1.1992493c0.8121338 0.7678528 1.2684326 1.8092957 1.2684326 2.8952332l0 0c0 2.261322 -1.9389038 4.0944824 -4.3306885 4.0944824l0 0c-2.3917847 0 -4.3307495 -1.8331604 -4.3307495 -4.0944824z" fill-rule="evenodd"/><path stroke="#000000" stroke-width="1.0" stroke-linejoin="round" stroke-linecap="butt" d="m774.0985 479.09357l0 0c0 -2.261322 1.9389648 -4.0944824 4.3307495 -4.0944824l0 0c1.1485596 0 2.250061 0.43136597 3.0622559 1.1992493c0.8121338 0.7678528 1.2684326 1.8092957 1.2684326 2.8952332l0 0c0 2.261322 -1.9389038 4.0944824 -4.3306885 4.0944824l0 0c-2.3917847 0 -4.3307495 -1.8331604 -4.3307495 -4.0944824z" fill-rule="evenodd"/><path fill="#000000" d="m153.16135 397.0388l0 0c0 -2.2613525 1.9389343 -4.094513 4.3307037 -4.094513l0 0c1.1485901 0 2.250122 0.43139648 3.0622864 1.1992493c0.8121643 0.7678833 1.2684326 1.8093262 1.2684326 2.8952637l0 0c0 2.261322 -1.9389343 4.0944824 -4.330719 4.0944824l0 0c-2.3917694 0 -4.3307037 -1.8331604 -4.3307037 -4.0944824z" fill-rule="evenodd"/><path stroke="#000000" stroke-width="1.0" stroke-linejoin="round" stroke-linecap="butt" d="m153.16135 397.0388l0 0c0 -2.2613525 1.9389343 -4.094513 4.3307037 -4.094513l0 0c1.1485901 0 2.250122 0.43139648 3.0622864 1.1992493c0.8121643 0.7678833 1.2684326 1.8093262 1.2684326 2.8952637l0 0c0 2.261322 -1.9389343 4.0944824 -4.330719 4.0944824l0 0c-2.3917694 0 -4.3307037 -1.8331604 -4.3307037 -4.0944824z" fill-rule="evenodd"/><path fill="#000000" fill-opacity="0.0" d="m546.81104 403.03412l50.362183 0l0 40.0l-50.362183 0z" fill-rule="evenodd"/><path fill="#000000" d="m557.5454 429.95413l0 -13.359375l1.765625 0l0 13.359375l-1.765625 0zm12.839539 -1.578125l0 1.578125l-8.828125 0q-0.015625 -0.59375 0.1875 -1.140625q0.34375 -0.90625 1.078125 -1.78125q0.75 -0.875 2.15625 -2.015625q2.171875 -1.78125 2.9375 -2.828125q0.765625 -1.046875 0.765625 -1.96875q0 -0.984375 -0.703125 -1.640625q-0.6875 -0.671875 -1.8125 -0.671875q-1.1875 0 -1.90625 0.71875q-0.703125 0.703125 -0.703125 1.953125l-1.6875 -0.171875q0.171875 -1.890625 1.296875 -2.875q1.140625 -0.984375 3.03125 -0.984375q1.921875 0 3.046875 1.0625q1.125 1.0625 1.125 2.640625q0 0.796875 -0.328125 1.578125q-0.328125 0.78125 -1.09375 1.640625q-0.75 0.84375 -2.53125 2.34375q-1.46875 1.234375 -1.890625 1.6875q-0.421875 0.4375 -0.6875 0.875l6.546875 0zm11.953857 -3.109375l1.765625 0.453125q-0.5625 2.171875 -2.0 3.328125q-1.4375 1.140625 -3.53125 1.140625q-2.15625 0 -3.515625 -0.875q-1.34375 -0.890625 -2.0625 -2.546875q-0.703125 -1.671875 -0.703125 -3.59375q0 -2.078125 0.796875 -3.625q0.796875 -1.5625 2.265625 -2.359375q1.484375 -0.8125 3.25 -0.8125q2.0 0 3.359375 1.015625q1.375 1.015625 1.90625 2.875l-1.734375 0.40625q-0.46875 -1.453125 -1.359375 -2.109375q-0.875 -0.671875 -2.203125 -0.671875q-1.546875 0 -2.578125 0.734375q-1.03125 0.734375 -1.453125 1.984375q-0.421875 1.234375 -0.421875 2.5625q0 1.703125 0.5 2.96875q0.5 1.265625 1.546875 1.90625q1.046875 0.625 2.265625 0.625q1.484375 0 2.515625 -0.859375q1.03125 -0.859375 1.390625 -2.546875z" fill-rule="nonzero"/></g></svg>